{
  "accessors": [
    {
      "bufferView": 2,
      "componentType": 5126,
      "count": 1688,
      "max": [
        1.3136053085327148,
        1.3136051893234253,
        2.0212299823760986
      ],
      "min": [
        -1.3136051893234253,
        -1.3136051893234253,
        -2.0467791557312012
      ],
      "type": "VEC3"
    },
    {
      "bufferView": 2,
      "byteOffset": 20256,
      "componentType": 5126,
      "count": 1688,
      "max": [
        1,
        1,
        1
      ],
      "min": [
        -1,
        -1,
        -1
      ],
      "type": "VEC3"
    },
    {
      "bufferView": 1,
      "componentType": 5126,
      "count": 1688,
      "max": [
        0.99346798658370972,
        0.97103875875473022
      ],
      "min": [
        0.00083539780462160707,
        0.00083539780462160707
      ],
      "type": "VEC2"
    },
    {
      "bufferView": 0,
      "componentType": 5125,
      "count": 6912,
      "max": [
        1687
      ],
      "min": [
        0
      ],
      "type": "SCALAR"
    },
    {
      "bufferView": 2,
      "byteOffset": 40512,
      "componentType": 5126,
      "count": 736,
      "max": [
        1.3337709903717041,
        1.3336721658706665,
        0.71054792404174805
      ],
      "min": [
        -1.3337687253952026,
        -1.3338674306869507,
        -0.58360123634338379
      ],
      "type": "VEC3"
    },
    {
      "bufferView": 2,
      "byteOffset": 49344,
      "componentType": 5126,
      "count": 736,
      "max": [
        1,
        1,
        1
      ],
      "min": [
        -1,
        -1,
        -1
      ],
      "type": "VEC3"
    },
    {
      "bufferView": 1,
      "byteOffset": 13504,
      "componentType": 5126,
      "count": 736,
      "max": [
        0.9991646409034729,
        0.99373465776443481
      ],
      "min": [
        0.18608061969280243,
        0.00083539780462160707
      ],
      "type": "VEC2"
    },
    {
      "bufferView": 0,
      "byteOffset": 27648,
      "componentType": 5125,
      "count": 2688,
      "max": [
        735
      ],
      "min": [
        0
      ],
      "type": "SCALAR"
    },
    {
      "bufferView": 2,
      "byteOffset": 58176,
      "componentType": 5126,
      "count": 480,
      "max": [
        0.68320053815841675,
        0.2289392501115799,
        2.9479708671569824
      ],
      "min": [
        -0.69534760713577271,
        -0.2289416640996933,
        -2.9816915988922119
      ],
      "type": "VEC3"
    },
    {
      "bufferView": 2,
      "byteOffset": 63936,
      "componentType": 5126,
      "count": 480,
      "max": [
        0.98801487684249878,
        1,
        0.98801803588867188
      ],
      "min": [
        -0.98801487684249878,
        -1,
        -0.99060773849487305
      ],
      "type": "VEC3"
    },
    {
      "bufferView": 1,
      "byteOffset": 19392,
      "componentType": 5126,
      "count": 480,
      "max": [
        0.95214229822158813,
        0.85430312156677246
      ],
      "min": [
        0.57160592079162598,
        0.131312295794487
      ],
      "type": "VEC2"
    },
    {
      "bufferView": 0,
      "byteOffset": 38400,
      "componentType": 5125,
      "count": 1728,
      "max": [
        479
      ],
      "min": [
        0
      ],
      "type": "SCALAR"
    },
    {
      "bufferView": 2,
      "byteOffset": 69696,
      "componentType": 5126,
      "count": 824,
      "max": [
        1.1736724376678467,
        1.1747405529022217,
        2.4540164470672607
      ],
      "min": [
        -1.1746270656585693,
        -1.1735589504241943,
        -2.2643802165985107
      ],
      "type": "VEC3"
    },
    {
      "bufferView": 2,
      "byteOffset": 79584,
      "componentType": 5126,
      "count": 824,
      "max": [
        0.99829548597335815,
        0.99829548597335815,
        0.99732273817062378
      ],
      "min": [
        -0.99829548597335815,
        -0.99829548597335815,
        -1
      ],
      "type": "VEC3"
    },
    {
      "bufferView": 3,
      "componentType": 5126,
      "count": 824,
      "max": [
        0.31183907389640808,
        1,
        0.88636600971221924,
        1
      ],
      "min": [
        -0.99897825717926025,
        -1,
        -0.99829620122909546,
        1
      ],
      "type": "VEC4"
    },
    {
      "bufferView": 1,
      "byteOffset": 23232,
      "componentType": 5126,
      "count": 824,
      "max": [
        0.76807880401611328,
        0.85799640417098999
      ],
      "min": [
        0.00083539780462160707,
        0.00083539780462160707
      ],
      "type": "VEC2"
    },
    {
      "bufferView": 0,
      "byteOffset": 45312,
      "componentType": 5125,
      "count": 3600,
      "max": [
        823
      ],
      "min": [
        0
      ],
      "type": "SCALAR"
    },
    {
      "bufferView": 2,
      "byteOffset": 89472,
      "componentType": 5126,
      "count": 1920,
      "max": [
        1.206769585609436,
        0.30086356401443481,
        0.70938408374786377
      ],
      "min": [
        -0.72733324766159058,
        -1.7780158519744873,
        -2.1651191711425781
      ],
      "type": "VEC3"
    },
    {
      "bufferView": 2,
      "byteOffset": 112512,
      "componentType": 5126,
      "count": 1920,
      "max": [
        0.99977827072143555,
        0.99878436326980591,
        0.99609565734863281
      ],
      "min": [
        -0.99977827072143555,
        -0.99878436326980591,
        -0.99609565734863281
      ],
      "type": "VEC3"
    },
    {
      "bufferView": 3,
      "byteOffset": 13184,
      "componentType": 5126,
      "count": 1920,
      "max": [
        0.99991655349731445,
        0.9921576976776123,
        0.99497848749160767,
        1
      ],
      "min": [
        -0.99973493814468384,
        -0.99961543083190918,
        -0.99503690004348755,
        1
      ],
      "type": "VEC4"
    },
    {
      "bufferView": 1,
      "byteOffset": 29824,
      "componentType": 5126,
      "count": 1920,
      "max": [
        0.82578444480895996,
        0.74892723560333252
      ],
      "min": [
        0.67030543088912964,
        0.098227337002754211
      ],
      "type": "VEC2"
    },
    {
      "bufferView": 0,
      "byteOffset": 59712,
      "componentType": 5125,
      "count": 6480,
      "max": [
        1919
      ],
      "min": [
        0
      ],
      "type": "SCALAR"
    },
    {
      "bufferView": 2,
      "byteOffset": 135552,
      "componentType": 5126,
      "count": 300,
      "max": [
        0.58651834726333618,
        0.59713071584701538,
        0.5915483832359314
      ],
      "min": [
        -0.78808224201202393,
        -0.88163673877716064,
        -1.7418212890625
      ],
      "type": "VEC3"
    },
    {
      "bufferView": 2,
      "byteOffset": 139152,
      "componentType": 5126,
      "count": 300,
      "max": [
        0.98696959018707275,
        0.99457919597625732,
        0.9917331337928772
      ],
      "min": [
        -0.98696959018707275,
        -0.99457919597625732,
        -0.99173116683959961
      ],
      "type": "VEC3"
    },
    {
      "bufferView": 3,
      "byteOffset": 43904,
      "componentType": 5126,
      "count": 300,
      "max": [
        0.99550765752792358,
        0.99731624126434326,
        0.98075371980667114,
        1
      ],
      "min": [
        -0.99263870716094971,
        -0.98709344863891602,
        -0.99915564060211182,
        1
      ],
      "type": "VEC4"
    },
    {
      "bufferView": 1,
      "byteOffset": 45184,
      "componentType": 5126,
      "count": 300,
      "max": [
        0.90220391750335693,
        0.91974484920501709
      ],
      "min": [
        0.00083539780462160707,
        0.8521571159362793
      ],
      "type": "VEC2"
    },
    {
      "bufferView": 0,
      "byteOffset": 85632,
      "componentType": 5125,
      "count": 1152,
      "max": [
        299
      ],
      "min": [
        0
      ],
      "type": "SCALAR"
    }
  ],
  "asset": {
    "extras": {
      "author": "Azamuki (https://sketchfab.com/Azamuki)",
      "license": "CC-BY-4.0 (http://creativecommons.org/licenses/by/4.0/)",
      "source": "https://sketchfab.com/3d-models/bubble-tea-f6f3b23bae754c8e80faec22093cc1f7",
      "title": "Bubble Tea"
    },
    "generator": "Sketchfab-8.59.0",
    "version": "2.0"
  },
  "bufferViews": [
    {
      "buffer": 0,
      "byteLength": 90240,
      "byteOffset": 0,
      "name": "floatBufferViews",
      "target": 34963
    },
    {
      "buffer": 0,
      "byteLength": 47584,
      "byteOffset": 90240,
      "byteStride": 8,
      "name": "floatBufferViews",
      "target": 34962
    },
    {
      "buffer": 0,
      "byteLength": 142752,
      "byteOffset": 137824,
      "byteStride": 12,
      "name": "floatBufferViews",
      "target": 34962
    },
    {
      "buffer": 0,
      "byteLength": 48704,
      "byteOffset": 280576,
      "byteStride": 16,
      "name": "floatBufferViews",
      "target": 34962
    }
  ],
  "buffers": [
    {
      "byteLength": 329280,
      "uri": "scene.bin"
    }
  ],
  "images": [
    {
      "uri": "textures/Plastic_Cup_baseColor.png"
    },
    {
      "uri": "textures/Plastic_Cup_metallicRoughness.png"
    },
    {
      "uri": "textures/material_normal.png"
    },
    {
      "uri": "textures/material_5_baseColor.png"
    }
  ],
  "materials": [
    {
      "alphaMode": "BLEND",
      "doubleSided": true,
      "name": "Plastic_Cup",
      "pbrMetallicRoughness": {
        "baseColorFactor": [
          1,
          1,
          1,
          1
        ],
        "baseColorTexture": {
          "index": 0,
          "texCoord": 0
        },
        "metallicFactor": 0,
        "metallicRoughnessTexture": {
          "index": 1,
          "texCoord": 0
        },
        "roughnessFactor": 1
      }
    },
    {
      "alphaMode": "BLEND",
      "doubleSided": true,
      "name": "Dome_Lid",
      "pbrMetallicRoughness": {
        "baseColorFactor": [
          1,
          1,
          1,
          1
        ],
        "baseColorTexture": {
          "index": 0,
          "texCoord": 0
        },
        "metallicFactor": 0,
        "metallicRoughnessTexture": {
          "index": 1,
          "texCoord": 0
        },
        "roughnessFactor": 1
      }
    },
    {
      "alphaMode": "BLEND",
      "doubleSided": true,
      "emissiveFactor": [
        0,
        0,
        0
      ],
      "name": "Tube",
      "pbrMetallicRoughness": {
        "baseColorFactor": [
          1,
          1,
          1,
          1
        ],
        "baseColorTexture": {
          "index": 0,
          "texCoord": 0
        },
        "metallicFactor": 0,
        "metallicRoughnessTexture": {
          "index": 1,
          "texCoord": 0
        },
        "roughnessFactor": 1
      }
    },
    {
      "alphaMode": "BLEND",
      "doubleSided": true,
      "name": "material",
      "normalTexture": {
        "index": 2,
        "scale": 1,
        "texCoord": 0
      },
      "pbrMetallicRoughness": {
        "baseColorFactor": [
          1,
          1,
          1,
          1
        ],
        "baseColorTexture": {
          "index": 0,
          "texCoord": 0
        },
        "metallicFactor": 0,
        "metallicRoughnessTexture": {
          "index": 1,
          "texCoord": 0
        },
        "roughnessFactor": 1
      }
    },
    {
      "alphaMode": "BLEND",
      "doubleSided": true,
      "name": "Bubble",
      "normalTexture": {
        "index": 2,
        "scale": 1,
        "texCoord": 0
      },
      "pbrMetallicRoughness": {
        "baseColorFactor": [
          1,
          1,
          1,
          1
        ],
        "baseColorTexture": {
          "index": 0,
          "texCoord": 0
        },
        "metallicFactor": 0,
        "metallicRoughnessTexture": {
          "index": 1,
          "texCoord": 0
        },
        "roughnessFactor": 1
      }
    },
    {
      "doubleSided": true,
      "name": "material_5",
      "normalTexture": {
        "index": 2,
        "scale": 1,
        "texCoord": 0
      },
      "pbrMetallicRoughness": {
        "baseColorFactor": [
          1,
          1,
          1,
          1
        ],
        "baseColorTexture": {
          "index": 3,
          "texCoord": 0
        },
        "metallicFactor": 0,
        "metallicRoughnessTexture": {
          "index": 1,
          "texCoord": 0
        },
        "roughnessFactor": 1
      }
    }
  ],
  "meshes": [
    {
      "name": "Plastic_Cup_Plastic_Cup_0",
      "primitives": [
        {
          "attributes": {
            "NORMAL": 1,
            "POSITION": 0,
            "TEXCOORD_0": 2
          },
          "indices": 3,
          "material": 0,
          "mode": 4
        }
      ]
    },
    {
      "name": "Dome_Lid_Dome_Lid_0",
      "primitives": [
        {
          "attributes": {
            "NORMAL": 5,
            "POSITION": 4,
            "TEXCOORD_0": 6
          },
          "indices": 7,
          "material": 1,
          "mode": 4
        }
      ]
    },
    {
      "name": "Tube_Tube_0",
      "primitives": [
        {
          "attributes": {
            "NORMAL": 9,
            "POSITION": 8,
            "TEXCOORD_0": 10
          },
          "indices": 11,
          "material": 2,
          "mode": 4
        }
      ]
    },
    {
      "name": "Tea_Tea_0",
      "primitives": [
        {
          "attributes": {
            "NORMAL": 13,
            "POSITION": 12,
            "TANGENT": 14,
            "TEXCOORD_0": 15
          },
          "indices": 16,
          "material": 3,
          "mode": 4
        }
      ]
    },
    {
      "name": "Bubble_Bubble_0",
      "primitives": [
        {
          "attributes": {
            "NORMAL": 18,
            "POSITION": 17,
            "TANGENT": 19,
            "TEXCOORD_0": 20
          },
          "indices": 21,
          "material": 4,
          "mode": 4
        }
      ]
    },
    {
      "name": "Eye_Eye_0",
      "primitives": [
        {
          "attributes": {
            "NORMAL": 23,
            "POSITION": 22,
            "TANGENT": 24,
            "TEXCOORD_0": 25
          },
          "indices": 26,
          "material": 5,
          "mode": 4
        }
      ]
    }
  ],
  "nodes": [
    {
      "children": [
        1
      ],
      "name": "RootNode (gltf orientation matrix)",
      "rotation": [
        -0.70710678118654746,
        -0,
        -0,
        0.70710678118654757
      ]
    },
    {
      "children": [
        2
      ],
      "matrix": [
        0.0028348967898637056,
        0,
        0,
        0,
        0,
        0.0028348967898637056,
        0,
        0,
        0,
        0,
        0.0028348967898637056,
        0,
        0,
        0,
        0,
        1
      ],
      "name": "RootNode (model correction matrix)"
    },
    {
      "children": [
        3
      ],
      "matrix": [
        1,
        0,
        0,
        0,
        0,
        0,
        1,
        0,
        0,
        -1,
        0,
        0,
        0,
        0,
        0,
        1
      ],
      "name": "bubble_tea_original.fbx"
    },
    {
      "children": [
        4,
        6,
        8,
        10,
        12,
        14,
        16,
        19,
        22,
        25,
        28,
        31
      ],
      "name": "RootNode"
    },
    {
      "children": [
        5
      ],
      "matrix": [
        100,
        0,
        0,
        0,
        -0,
        -1.6292067939183141e-05,
        -99.999999999998678,
        0,
        0,
        99.999999999998678,
        -1.6292067939183141e-05,
        0,
        -1.8966775314765982e-06,
        202.8779296875,
        -6.3743124201209866e-07,
        1
      ],
      "name": "Plastic_Cup"
    },
    {
      "mesh": 0,
      "name": "Plastic_Cup_Plastic_Cup_0"
    },
    {
      "children": [
        7
      ],
      "matrix": [
        100,
        0,
        0,
        0,
        -0,
        -1.6292067939183141e-05,
        -99.999999999998678,
        0,
        0,
        99.999999999998678,
        -1.6292067939183141e-05,
        0,
        -0.00010901272617047653,
        445.36016845703125,
        -0.00976602453738451,
        1
      ],
      "name": "Dome_Lid"
    },
    {
      "mesh": 1,
      "name": "Dome_Lid_Dome_Lid_0"
    },
    {
      "children": [
        9
      ],
      "matrix": [
        100,
        0,
        0,
        0,
        -0,
        -1.6292067939183141e-05,
        -99.999999999998678,
        0,
        0,
        99.999999999998678,
        -1.6292067939183141e-05,
        0,
        -22.302236557006836,
        318.82012939453125,
        4.1093506813049316,
        1
      ],
      "name": "Tube"
    },
    {
      "mesh": 2,
      "name": "Tube_Tube_0"
    },
    {
      "children": [
        11
      ],
      "matrix": [
        99.900001525878906,
        0,
        0,
        0,
        0,
        -1.6275776119841188e-05,
        -99.900001525877585,
        0,
        0,
        99.900001525877585,
        -1.6275776119841188e-05,
        0,
        0.047726042568683624,
        226.43893432617188,
        0.059075403958559036,
        1
      ],
      "name": "Tea"
    },
    {
      "mesh": 3,
      "name": "Tea_Tea_0"
    },
    {
      "children": [
        13
      ],
      "matrix": [
        100,
        0,
        0,
        0,
        -0,
        -1.6292067939183141e-05,
        -99.999999999998678,
        0,
        0,
        99.999999999998678,
        -1.6292067939183141e-05,
        0,
        -27.434230804443359,
        234.55987548828125,
        -71.266708374023438,
        1
      ],
      "name": "Bubble"
    },
    {
      "mesh": 4,
      "name": "Bubble_Bubble_0"
    },
    {
      "children": [
        15
      ],
      "matrix": [
        100,
        0,
        0,
        0,
        0,
        -1.6292067939183141e-05,
        -99.999999999998678,
        0,
        0,
        99.999999999998678,
        -1.6292067939183141e-05,
        0,
        47.178657531738281,
        242.00421142578125,
        0.26989322900772095,
        1
      ],
      "name": "Eye"
    },
    {
      "mesh": 5,
      "name": "Eye_Eye_0"
    },
    {
      "children": [
        17
      ],
      "matrix": [
        100,
        0,
        0,
        0,
        0,
        99.999999999999716,
        -7.5497901264043296e-06,
        0,
        0,
        7.5497901264043296e-06,
        99.999999999999716,
        0,
        0,
        1000,
        0,
        1
      ],
      "name": "Sun"
    },
    {
      "children": [
        18
      ],
      "matrix": [
        1,
        0,
        0,
        0,
        0,
        2.2204460492503131e-16,
        1,
        0,
        0,
        -1,
        2.2204460492503131e-16,
        0,
        0,
        0,
        0,
        1
      ],
      "name": ""
    },
    {
      "name": ""
    },
    {
      "children": [
        20
      ],
      "matrix": [
        70.710676573223395,
        -70.710679664085433,
        -9.5006043920875425e-06,
        0,
        70.710679664084523,
        70.710676573224021,
        -1.1485070672279031e-05,
        0,
        1.4839113176459588e-05,
        1.4032292394403922e-06,
        99.999999999998892,
        0,
        0,
        1000,
        0,
        1
      ],
      "name": "Sun.001"
    },
    {
      "children": [
        21
      ],
      "matrix": [
        1,
        0,
        0,
        0,
        0,
        2.2204460492503131e-16,
        1,
        0,
        0,
        -1,
        2.2204460492503131e-16,
        0,
        0,
        0,
        0,
        1
      ],
      "name": ""
    },
    {
      "name": ""
    },
    {
      "children": [
        23
      ],
      "matrix": [
        5.338507954432631e-06,
        -70.710681968020026,
        70.71068505888249,
        0,
        1.4132212157356329e-05,
        70.710685058882405,
        70.710681968018875,
        0,
        -99.999999999998877,
        6.2180876947426356e-06,
        1.3767877038439735e-05,
        0,
        0,
        1000,
        0,
        1
      ],
      "name": "Sun.002"
    },
    {
      "children": [
        24
      ],
      "matrix": [
        1,
        0,
        0,
        0,
        0,
        2.2204460492503131e-16,
        1,
        0,
        0,
        -1,
        2.2204460492503131e-16,
        0,
        0,
        0,
        0,
        1
      ],
      "name": ""
    },
    {
      "name": ""
    },
    {
      "children": [
        26
      ],
      "matrix": [
        -70.710685002592271,
        -70.710671234714923,
        1.5099579909783704e-05,
        0,
        -70.710671234713814,
        70.710685002593877,
        1.2661479343901135e-05,
        0,
        -1.9630033419039376e-05,
        -1.723995532295832e-06,
        -99.999999999998039,
        0,
        0,
        1000,
        0,
        1
      ],
      "name": "Sun.003"
    },
    {
      "children": [
        27
      ],
      "matrix": [
        1,
        0,
        0,
        0,
        0,
        2.2204460492503131e-16,
        1,
        0,
        0,
        -1,
        2.2204460492503131e-16,
        0,
        0,
        0,
        0,
        1
      ],
      "name": ""
    },
    {
      "name": ""
    },
    {
      "children": [
        29
      ],
      "matrix": [
        -3.090861766530395e-06,
        -70.710672358538588,
        -70.710683878770382,
        0,
        -1.2802767124231451e-06,
        70.710683878770439,
        -70.710672358538588,
        0,
        99.999999999999943,
        -1.2802767124231451e-06,
        -3.090861766530395e-06,
        0,
        0,
        1000,
        0,
        1
      ],
      "name": "Sun.004"
    },
    {
      "children": [
        30
      ],
      "matrix": [
        1,
        0,
        0,
        0,
        0,
        2.2204460492503131e-16,
        1,
        0,
        0,
        -1,
        2.2204460492503131e-16,
        0,
        0,
        0,
        0,
        1
      ],
      "name": ""
    },
    {
      "name": ""
    },
    {
      "children": [
        32
      ],
      "matrix": [
        -99.999999999992426,
        3.8941437731121185e-05,
        1.1746023567042827e-12,
        0,
        -3.8941437731119281e-05,
        -99.9999999999865,
        -3.4421557870700117e-05,
        0,
        -1.2229647167596404e-11,
        -3.4421557870697969e-05,
        99.999999999994074,
        0,
        0,
        1000,
        0,
        1
      ],
      "name": "Sun.005"
    },
    {
      "children": [
        33
      ],
      "matrix": [
        1,
        0,
        0,
        0,
        0,
        2.2204460492503131e-16,
        1,
        0,
        0,
        -1,
        2.2204460492503131e-16,
        0,
        0,
        0,
        0,
        1
      ],
      "name": ""
    },
    {
      "name": ""
    }
  ],
  "samplers": [
    {
      "magFilter": 9729,
      "minFilter": 9987,
      "wrapS": 10497,
      "wrapT": 10497
    }
  ],
  "scene": 0,
  "scenes": [
    {
      "name": "OSG_Scene",
      "nodes": [
        0
      ]
    }
  ],
  "textures": [
    {
      "sampler": 0,
      "source": 0
    },
    {
      "sampler": 0,
      "source": 1
    },
    {
      "sampler": 0,
      "source": 2
    },
    {
      "sampler": 0,
      "source": 3
    }
  ]
}

